<?xml version="1.0" encoding="UTF-8" standalone="no"?>
<!DOCTYPE svg PUBLIC "-//W3C//DTD SVG 1.1//EN" "http://www.w3.org/Graphics/SVG/1.1/DTD/svg11.dtd">
<svg width="100%" height="100%" viewBox="0 0 1882 560" version="1.1" xmlns="http://www.w3.org/2000/svg" xmlns:xlink="http://www.w3.org/1999/xlink" xml:space="preserve" style="fill-rule:evenodd;clip-rule:evenodd;stroke-linejoin:round;stroke-miterlimit:1.41421;">
    <g transform="matrix(4.16667,0,0,4.16667,-1741.42,-1362.26)">
        <g transform="matrix(0.907331,0,0,0.907331,97.1113,-13.6851)">
            <g transform="matrix(1,0,0,1,-3.74385,278)">
                <path d="M372.34,118.896C372.34,112.736 375,107.616 380.32,103.536C385.64,99.456 392.22,97.416 400.06,97.416C406.14,97.416 410.88,98.656 414.28,101.136C417.68,103.616 419.38,107.176 419.38,111.816C419.38,115.416 418.48,118.336 416.68,120.576C414.88,122.816 412.5,123.936 409.54,123.936C408.42,123.936 407.4,123.736 406.48,123.336C405.56,122.936 404.74,122.296 404.02,121.416C405.62,120.456 406.92,119.016 407.92,117.096C408.92,115.176 409.42,113.176 409.42,111.096C409.42,108.536 408.66,106.556 407.14,105.156C405.62,103.756 403.42,103.056 400.54,103.056C397.1,103.056 394.4,104.016 392.44,105.936C390.48,107.856 389.5,110.536 389.5,113.976C389.5,116.776 390.22,119.436 391.66,121.956C393.1,124.476 396.22,127.856 401.02,132.096C407.34,137.616 411.5,142.396 413.5,146.436C415.5,150.476 416.5,154.976 416.5,159.936C416.5,169.056 413.34,176.336 407.02,181.776C400.7,187.216 392.62,189.936 382.78,189.936C374.94,189.936 368.74,188.136 364.18,184.536C359.62,180.936 357.34,175.856 357.34,169.296C357.34,163.536 359.06,158.816 362.5,155.136C365.94,151.456 370.1,149.616 374.98,149.616C378.02,149.616 380.5,150.316 382.42,151.716C384.34,153.116 385.38,155.056 385.54,157.536C381.38,157.536 378,158.536 375.4,160.536C372.8,162.536 371.5,165.296 371.5,168.816C371.5,172.176 372.54,174.936 374.62,177.096C376.7,179.256 379.5,180.336 383.02,180.336C387.18,180.336 390.54,178.896 393.1,176.016C395.66,173.136 396.94,169.256 396.94,164.376C396.94,160.616 396.1,157.016 394.42,153.576C392.74,150.136 389.26,145.536 383.98,139.776C379.18,134.656 376.04,130.636 374.56,127.716C373.08,124.796 372.34,121.856 372.34,118.896Z" style="fill-rule:nonzero;"/>
                <path d="M466.54,137.856C466.54,144.496 463.82,150.276 458.38,155.196C452.94,160.116 446.46,162.776 438.94,163.176C438.86,164.536 438.8,165.556 438.76,166.236C438.72,166.916 438.7,167.496 438.7,167.976C438.7,171.656 439.32,174.256 440.56,175.776C441.8,177.296 444.06,178.056 447.34,178.056C451.1,178.056 454.56,177.196 457.72,175.476C460.88,173.756 464.5,170.576 468.58,165.936L472.66,165.936C468.02,173.456 462.98,179.036 457.54,182.676C452.1,186.316 446.14,188.136 439.66,188.136C433.5,188.136 428.84,186.536 425.68,183.336C422.52,180.136 420.94,175.376 420.94,169.056C420.94,164.496 421.66,159.656 423.1,154.536C424.54,149.416 426.46,144.856 428.86,140.856C431.82,136.056 435.36,132.436 439.48,129.996C443.6,127.556 448.22,126.336 453.34,126.336C457.74,126.336 461.04,127.276 463.24,129.156C465.44,131.036 466.54,133.936 466.54,137.856ZM454.3,132.696C451.58,132.696 448.84,135.116 446.08,139.956C443.32,144.796 441.26,150.616 439.9,157.416C444.54,157.096 448.6,154.956 452.08,150.996C455.56,147.036 457.3,142.576 457.3,137.616C457.3,135.936 457.06,134.696 456.58,133.896C456.1,133.096 455.34,132.696 454.3,132.696Z" style="fill-rule:nonzero;"/>
                <path d="M512.62,137.856C512.62,144.496 509.9,150.276 504.46,155.196C499.02,160.116 492.54,162.776 485.02,163.176C484.94,164.536 484.88,165.556 484.84,166.236C484.8,166.916 484.78,167.496 484.78,167.976C484.78,171.656 485.4,174.256 486.64,175.776C487.88,177.296 490.14,178.056 493.42,178.056C497.18,178.056 500.64,177.196 503.8,175.476C506.96,173.756 510.58,170.576 514.66,165.936L518.74,165.936C514.1,173.456 509.06,179.036 503.62,182.676C498.18,186.316 492.22,188.136 485.74,188.136C479.58,188.136 474.92,186.536 471.76,183.336C468.6,180.136 467.02,175.376 467.02,169.056C467.02,164.496 467.74,159.656 469.18,154.536C470.62,149.416 472.54,144.856 474.94,140.856C477.9,136.056 481.44,132.436 485.56,129.996C489.68,127.556 494.3,126.336 499.42,126.336C503.82,126.336 507.12,127.276 509.32,129.156C511.52,131.036 512.62,133.936 512.62,137.856ZM500.38,132.696C497.66,132.696 494.92,135.116 492.16,139.956C489.4,144.796 487.34,150.616 485.98,157.416C490.62,157.096 494.68,154.956 498.16,150.996C501.64,147.036 503.38,142.576 503.38,137.616C503.38,135.936 503.14,134.696 502.66,133.896C502.18,133.096 501.42,132.696 500.38,132.696Z" style="fill-rule:nonzero;"/>
                <path d="M575.02,174.576C575.02,173.136 575.2,171.336 575.56,169.176C575.92,167.016 576.66,163.576 577.78,158.856C578.9,154.296 579.62,151.016 579.94,149.016C580.26,147.016 580.42,145.336 580.42,143.976C580.42,141.976 580.06,140.456 579.34,139.416C578.62,138.376 577.54,137.856 576.1,137.856C574.18,137.856 572.4,138.836 570.76,140.796C569.12,142.756 567.78,145.456 566.74,148.896L558.58,187.416L541.3,187.416L550.06,146.016C550.22,145.536 550.32,145.056 550.36,144.576C550.4,144.096 550.42,143.576 550.42,143.016C550.42,141.416 550.1,140.136 549.46,139.176C548.82,138.216 547.94,137.736 546.82,137.736C544.74,137.736 542.86,138.716 541.18,140.676C539.5,142.636 538.14,145.376 537.1,148.896L528.94,187.416L511.66,187.416L524.38,127.416L541.66,127.416L540.34,133.656C542.34,131.336 544.54,129.616 546.94,128.496C549.34,127.376 552.02,126.816 554.98,126.816C558.5,126.816 561.28,127.676 563.32,129.396C565.36,131.116 566.7,133.696 567.34,137.136C569.58,133.696 572.06,131.136 574.78,129.456C577.5,127.776 580.58,126.936 584.02,126.936C588.26,126.936 591.54,128.096 593.86,130.416C596.18,132.736 597.34,136.096 597.34,140.496C597.34,142.336 597.12,144.516 596.68,147.036C596.24,149.556 595.38,153.416 594.1,158.616C593.06,162.696 592.38,165.576 592.06,167.256C591.74,168.936 591.58,170.336 591.58,171.456C591.58,173.136 591.98,174.396 592.78,175.236C593.58,176.076 594.78,176.496 596.38,176.496C598.38,176.496 600.1,175.816 601.54,174.456C602.98,173.096 604.62,170.256 606.46,165.936L611.5,165.936C608.94,173.376 605.84,178.936 602.2,182.616C598.56,186.296 594.22,188.136 589.18,188.136C584.7,188.136 581.22,186.916 578.74,184.476C576.26,182.036 575.02,178.736 575.02,174.576Z" style="fill-rule:nonzero;"/>
                <path d="M636.1,111.456C636.1,114.096 635.16,116.336 633.28,118.176C631.4,120.016 629.14,120.936 626.5,120.936C623.86,120.936 621.62,120.016 619.78,118.176C617.94,116.336 617.02,114.096 617.02,111.456C617.02,108.816 617.94,106.556 619.78,104.676C621.62,102.796 623.86,101.856 626.5,101.856C629.14,101.856 631.4,102.796 633.28,104.676C635.16,106.556 636.1,108.816 636.1,111.456ZM605.5,173.736C605.5,172.696 605.58,171.516 605.74,170.196C605.9,168.876 606.14,167.456 606.46,165.936L614.62,127.416L631.9,127.416L623.26,168.216C623.1,168.936 622.98,169.596 622.9,170.196C622.82,170.796 622.78,171.416 622.78,172.056C622.78,173.656 623.16,174.796 623.92,175.476C624.68,176.156 625.94,176.496 627.7,176.496C629.94,176.496 632.06,175.516 634.06,173.556C636.06,171.596 637.54,169.056 638.5,165.936L643.54,165.936C640.98,173.216 637.54,178.736 633.22,182.496C628.9,186.256 623.94,188.136 618.34,188.136C614.34,188.136 611.2,186.876 608.92,184.356C606.64,181.836 605.5,178.296 605.5,173.736Z" style="fill-rule:nonzero;"/>
                <path d="M666.7,174.576C666.7,173.136 666.88,171.336 667.24,169.176C667.6,167.016 668.34,163.576 669.46,158.856C670.58,154.296 671.3,151.016 671.62,149.016C671.94,147.016 672.1,145.336 672.1,143.976C672.1,141.976 671.74,140.456 671.02,139.416C670.3,138.376 669.22,137.856 667.78,137.856C665.86,137.856 664.08,138.836 662.44,140.796C660.8,142.756 659.46,145.456 658.42,148.896L650.26,187.416L632.98,187.416L645.7,127.416L662.98,127.416L661.66,133.656C663.66,131.416 665.82,129.736 668.14,128.616C670.46,127.496 672.98,126.936 675.7,126.936C679.94,126.936 683.22,128.096 685.54,130.416C687.86,132.736 689.02,136.096 689.02,140.496C689.02,142.336 688.8,144.516 688.36,147.036C687.92,149.556 687.06,153.416 685.78,158.616C684.74,162.696 684.06,165.576 683.74,167.256C683.42,168.936 683.26,170.336 683.26,171.456C683.26,173.136 683.66,174.396 684.46,175.236C685.26,176.076 686.46,176.496 688.06,176.496C690.06,176.496 691.78,175.816 693.22,174.456C694.66,173.096 696.3,170.256 698.14,165.936L703.18,165.936C700.62,173.376 697.52,178.936 693.88,182.616C690.24,186.296 685.9,188.136 680.86,188.136C676.38,188.136 672.9,186.916 670.42,184.476C667.94,182.036 666.7,178.736 666.7,174.576Z" style="fill-rule:nonzero;"/>
                <path d="M737.86,132.936L737.86,133.656L739.18,127.416L756.46,127.416L744.58,183.096C748.58,181.656 751.72,179.636 754,177.036C756.28,174.436 758.18,170.736 759.7,165.936L764.74,165.936C762.9,172.016 760.28,176.896 756.88,180.576C753.48,184.256 749.02,186.856 743.5,188.376L741.7,197.016C740.26,203.736 737.74,208.816 734.14,212.256C730.54,215.696 725.86,217.416 720.1,217.416C716.02,217.416 712.76,216.376 710.32,214.296C707.88,212.216 706.66,209.376 706.66,205.776C706.66,201.856 708.28,198.396 711.52,195.396C714.76,192.396 719.66,189.896 726.22,187.896L727.66,181.536C725.58,183.696 723.34,185.336 720.94,186.456C718.54,187.576 715.98,188.136 713.26,188.136C708.3,188.136 704.4,186.456 701.56,183.096C698.72,179.736 697.3,174.976 697.3,168.816C697.3,164.336 697.98,159.656 699.34,154.776C700.7,149.896 702.58,145.456 704.98,141.456C707.94,136.736 711.38,133.116 715.3,130.596C719.22,128.076 723.5,126.816 728.14,126.816C731.26,126.816 733.66,127.356 735.34,128.436C737.02,129.516 737.86,131.016 737.86,132.936ZM736.78,138.696C736.7,137.416 736.22,136.356 735.34,135.516C734.46,134.676 733.3,134.256 731.86,134.256C727.46,134.256 723.56,137.936 720.16,145.296C716.76,152.656 715.06,159.936 715.06,167.136C715.06,170.256 715.5,172.596 716.38,174.156C717.26,175.716 718.82,176.496 721.06,176.496C722.98,176.496 724.88,175.616 726.76,173.856C728.64,172.096 729.94,169.856 730.66,167.136L736.78,138.696ZM725.02,193.896C721.02,195.416 718.06,196.996 716.14,198.636C714.22,200.276 713.26,202.096 713.26,204.096C713.26,205.136 713.66,206.056 714.46,206.856C715.26,207.656 716.22,208.056 717.34,208.056C718.7,208.056 720.02,207.096 721.3,205.176C722.58,203.256 723.58,200.656 724.3,197.376L725.02,193.896Z" style="fill-rule:nonzero;"/>
                <path d="M758.74,173.736C758.74,172.696 758.82,171.516 758.98,170.196C759.14,168.876 759.38,167.456 759.7,165.936L772.54,105.816L790.3,103.416L776.5,168.216C776.34,168.936 776.22,169.596 776.14,170.196C776.06,170.796 776.02,171.416 776.02,172.056C776.02,173.656 776.4,174.796 777.16,175.476C777.92,176.156 779.18,176.496 780.94,176.496C783.18,176.496 785.3,175.516 787.3,173.556C789.3,171.596 790.78,169.056 791.74,165.936L796.78,165.936C794.22,173.216 790.78,178.736 786.46,182.496C782.14,186.256 777.18,188.136 771.58,188.136C767.58,188.136 764.44,186.876 762.16,184.356C759.88,181.836 758.74,178.296 758.74,173.736Z" style="fill-rule:nonzero;"/>
                <path d="M811.78,176.496C813.78,176.496 815.58,175.656 817.18,173.976C818.78,172.296 820.1,169.856 821.14,166.656L829.54,127.416L846.82,127.416L834.94,183.096C838.94,181.656 842.08,179.636 844.36,177.036C846.64,174.436 848.54,170.736 850.06,165.936L855.1,165.936C853.26,172.016 850.64,176.896 847.24,180.576C843.84,184.256 839.38,186.856 833.86,188.376L832.06,197.016C830.62,203.736 828.1,208.816 824.5,212.256C820.9,215.696 816.22,217.416 810.46,217.416C806.38,217.416 803.12,216.376 800.68,214.296C798.24,212.216 797.02,209.376 797.02,205.776C797.02,201.856 798.64,198.396 801.88,195.396C805.12,192.396 810.02,189.896 816.58,187.896L818.02,181.416C816.02,183.656 813.84,185.336 811.48,186.456C809.12,187.576 806.5,188.136 803.62,188.136C799.62,188.136 796.48,186.876 794.2,184.356C791.92,181.836 790.78,178.296 790.78,173.736C790.78,172.696 790.86,171.516 791.02,170.196C791.18,168.876 791.42,167.456 791.74,165.936L799.9,127.416L817.18,127.416L808.54,168.216C808.46,168.696 808.38,169.196 808.3,169.716C808.22,170.236 808.18,170.736 808.18,171.216C808.18,172.896 808.48,174.196 809.08,175.116C809.68,176.036 810.58,176.496 811.78,176.496ZM815.38,193.896C811.38,195.416 808.42,196.996 806.5,198.636C804.58,200.276 803.62,202.096 803.62,204.096C803.62,205.136 804.02,206.056 804.82,206.856C805.62,207.656 806.58,208.056 807.7,208.056C809.06,208.056 810.38,207.096 811.66,205.176C812.94,203.256 813.94,200.656 814.66,197.376L815.38,193.896Z" style="fill-rule:nonzero;"/>
            </g>
            <g transform="matrix(0.860021,0,0,0.750351,21.3013,283.812)">
                <path d="M432.132,309.071C432.399,309.071 432.625,309.164 432.812,309.351L434.412,311.071C433.239,312.324 431.959,313.451 430.572,314.451C429.185,315.451 427.672,316.304 426.032,317.011C424.392,317.717 422.592,318.264 420.632,318.651C418.672,319.037 416.519,319.231 414.172,319.231C410.252,319.231 406.659,318.544 403.392,317.171C400.125,315.797 397.325,313.851 394.992,311.331C392.659,308.811 390.839,305.764 389.532,302.191C388.225,298.617 387.572,294.644 387.572,290.271C387.572,285.977 388.245,282.057 389.592,278.511C390.939,274.964 392.832,271.917 395.272,269.371C397.712,266.824 400.632,264.851 404.032,263.451C407.432,262.051 411.185,261.351 415.292,261.351C417.345,261.351 419.225,261.504 420.932,261.811C422.639,262.117 424.232,262.557 425.712,263.131C427.192,263.704 428.585,264.417 429.892,265.271C431.199,266.124 432.479,267.111 433.732,268.231L432.492,270.031C432.279,270.351 431.945,270.511 431.492,270.511C431.252,270.511 430.945,270.371 430.572,270.091C430.199,269.811 429.725,269.464 429.152,269.051C428.579,268.637 427.885,268.184 427.072,267.691C426.259,267.197 425.292,266.744 424.172,266.331C423.052,265.917 421.759,265.571 420.292,265.291C418.825,265.011 417.159,264.871 415.292,264.871C411.852,264.871 408.692,265.464 405.812,266.651C402.932,267.837 400.452,269.531 398.372,271.731C396.292,273.931 394.672,276.597 393.512,279.731C392.352,282.864 391.772,286.377 391.772,290.271C391.772,294.271 392.345,297.844 393.492,300.991C394.639,304.137 396.225,306.797 398.252,308.971C400.279,311.144 402.672,312.811 405.432,313.971C408.192,315.131 411.185,315.711 414.412,315.711C416.439,315.711 418.245,315.577 419.832,315.311C421.419,315.044 422.879,314.644 424.212,314.111C425.545,313.577 426.785,312.924 427.932,312.151C429.079,311.377 430.212,310.471 431.332,309.431C431.465,309.324 431.592,309.237 431.712,309.171C431.832,309.104 431.972,309.071 432.132,309.071Z" style="fill-rule:nonzero;"/>
                <path d="M456.572,292.991L456.572,318.591L452.492,318.591L452.492,261.991L466.932,261.991C473.465,261.991 478.345,263.251 481.572,265.771C484.799,268.291 486.412,271.991 486.412,276.871C486.412,279.031 486.039,281.004 485.292,282.791C484.545,284.577 483.472,286.144 482.072,287.491C480.672,288.837 478.985,289.944 477.012,290.811C475.039,291.677 472.812,292.244 470.332,292.511C470.972,292.911 471.545,293.444 472.052,294.111L491.532,318.591L487.972,318.591C487.545,318.591 487.179,318.511 486.872,318.351C486.565,318.191 486.265,317.924 485.972,317.551L467.852,294.591C467.399,294.004 466.912,293.591 466.392,293.351C465.872,293.111 465.065,292.991 463.972,292.991L456.572,292.991ZM456.572,289.951L466.412,289.951C468.919,289.951 471.165,289.651 473.152,289.051C475.139,288.451 476.819,287.591 478.192,286.471C479.565,285.351 480.612,284.004 481.332,282.431C482.052,280.857 482.412,279.084 482.412,277.111C482.412,273.084 481.092,270.097 478.452,268.151C475.812,266.204 471.972,265.231 466.932,265.231L456.572,265.231L456.572,289.951Z" style="fill-rule:nonzero;"/>
                <path d="M539.692,261.991L539.692,265.391L509.892,265.391L509.892,288.271L534.692,288.271L534.692,291.591L509.892,291.591L509.892,315.191L539.692,315.191L539.692,318.591L505.772,318.591L505.772,261.991L539.692,261.991Z" style="fill-rule:nonzero;"/>
                <path d="M599.652,318.591L596.492,318.591C596.119,318.591 595.812,318.491 595.572,318.291C595.332,318.091 595.145,317.831 595.012,317.511L588.332,301.071L560.532,301.071L553.892,317.511C553.785,317.804 553.599,318.057 553.332,318.271C553.065,318.484 552.745,318.591 552.372,318.591L549.252,318.591L572.412,261.991L576.492,261.991L599.652,318.591ZM561.772,298.031L587.132,298.031L575.572,269.431C575.385,268.977 575.199,268.464 575.012,267.891C574.825,267.317 574.639,266.711 574.452,266.071C574.265,266.711 574.079,267.317 573.892,267.891C573.705,268.464 573.519,268.991 573.332,269.471L561.772,298.031Z" style="fill-rule:nonzero;"/>
                <path d="M644.972,261.991L644.972,265.471L625.092,265.471L625.092,318.591L621.012,318.591L621.012,265.471L601.012,265.471L601.012,261.991L644.972,261.991Z" style="fill-rule:nonzero;"/>
                <rect x="660.252" y="261.991" width="4.12" height="56.6" style="fill-rule:nonzero;"/>
                <path d="M678.892,261.991L682.132,261.991C682.505,261.991 682.812,262.091 683.052,262.291C683.292,262.491 683.479,262.751 683.612,263.071L702.892,310.031C703.399,311.257 703.812,312.564 704.132,313.951C704.425,312.511 704.812,311.204 705.292,310.031L724.532,263.071C724.665,262.777 724.859,262.524 725.112,262.311C725.365,262.097 725.679,261.991 726.052,261.991L729.252,261.991L705.892,318.591L702.252,318.591L678.892,261.991Z" style="fill-rule:nonzero;"/>
                <path d="M776.172,261.991L776.172,265.391L746.372,265.391L746.372,288.271L771.172,288.271L771.172,291.591L746.372,291.591L746.372,315.191L776.172,315.191L776.172,318.591L742.252,318.591L742.252,261.991L776.172,261.991Z" style="fill-rule:nonzero;"/>
            </g>
        </g>
    </g>
</svg>
